<svg width="2129" height="792" viewBox="0 0 2129 792" fill="none" xmlns="http://www.w3.org/2000/svg">
<mask id="path-1-inside-1" fill="white">
<path fill-rule="evenodd" clip-rule="evenodd" d="M1400.13 71.3856C1402.35 71.0606 1404.1 69.3363 1404.43 67.122L1409.85 30.0022C1409.85 30.0021 1409.85 30.002 1409.85 30.0019C1409.85 30.0009 1409.85 30 1409.85 30H1461.97C1461.97 30 1461.97 30.0001 1461.97 30.0003L1466.8 66.9616C1467.09 69.2132 1468.87 70.9782 1471.12 71.3028C1479.37 72.4946 1487.49 74.0992 1495.46 76.095C1497.63 76.6383 1499.9 75.717 1501.05 73.7973L1517.85 45.631C1519.12 43.4993 1521.76 42.6231 1524.06 43.5729L1564.16 60.1831C1566.48 61.144 1567.73 63.6761 1567.07 66.1008L1558.63 97.5183C1558.04 99.707 1559 102.013 1560.94 103.175C1568.12 107.462 1575.06 112.106 1581.74 117.084C1583.53 118.423 1586 118.447 1587.79 117.109L1613.86 97.6881C1615.85 96.2053 1618.63 96.4072 1620.38 98.1623L1651.08 128.854C1652.85 130.629 1653.03 133.446 1651.5 135.437L1631.83 161.032C1630.45 162.83 1630.45 165.331 1631.81 167.149C1636.82 173.87 1641.49 180.857 1645.81 188.086C1646.95 190.009 1649.22 190.974 1651.39 190.425L1682.64 182.525C1685.05 181.917 1687.54 183.166 1688.49 185.46L1705.1 225.56C1706.06 227.88 1705.15 230.552 1702.98 231.806L1675.18 247.822C1673.22 248.953 1672.26 251.258 1672.81 253.454C1674.8 261.36 1676.39 269.418 1677.58 277.607C1677.91 279.853 1679.67 281.627 1681.92 281.921L1713.65 286.07C1716.14 286.396 1718 288.517 1718 291.028V334.432C1718 336.915 1716.18 339.021 1713.72 339.38L1681.85 344.038C1679.63 344.362 1677.91 346.123 1677.59 348.341C1676.37 356.754 1674.72 365.027 1672.67 373.139C1672.11 375.339 1673.06 377.651 1675.03 378.784L1702.74 394.754C1704.92 396.008 1705.83 398.68 1704.87 401L1688.26 441.1C1687.31 443.393 1684.82 444.643 1682.41 444.034L1651.07 436.112C1648.9 435.565 1646.64 436.524 1645.49 438.44C1641.16 445.657 1636.47 452.632 1631.44 459.34C1630.08 461.159 1630.07 463.665 1631.46 465.468L1651.08 490.992C1652.61 492.982 1652.42 495.799 1650.65 497.574L1619.96 528.266C1618.2 530.021 1615.42 530.223 1613.43 528.74L1587.29 509.265C1585.5 507.93 1583.04 507.95 1581.25 509.282C1574.56 514.242 1567.61 518.869 1560.42 523.137C1558.47 524.296 1557.5 526.607 1558.09 528.8L1566.51 560.132C1567.17 562.556 1565.92 565.089 1563.6 566.049L1523.5 582.66C1521.21 583.609 1518.56 582.733 1517.29 580.602L1500.44 552.354C1499.3 550.438 1497.03 549.516 1494.86 550.053C1486.89 552.028 1478.77 553.612 1470.51 554.783C1468.26 555.103 1466.48 556.87 1466.18 559.126L1461.93 591.648C1461.6 594.138 1459.48 596 1456.97 596H1413.57C1411.09 596 1408.98 594.179 1408.62 591.723L1403.81 558.786C1403.48 556.576 1401.73 554.854 1399.52 554.524C1391.36 553.304 1383.32 551.68 1375.44 549.672C1373.24 549.112 1370.92 550.063 1369.79 552.031L1353.25 580.743C1351.99 582.919 1349.32 583.827 1347 582.867L1306.9 566.256C1304.61 565.307 1303.36 562.818 1303.97 560.412L1312.21 527.804C1312.75 525.643 1311.8 523.386 1309.89 522.234C1302.93 518.031 1296.19 513.491 1289.71 508.635C1287.89 507.274 1285.38 507.266 1283.58 508.65L1257.01 529.076C1255.02 530.607 1252.2 530.423 1250.43 528.648L1219.73 497.956C1217.98 496.201 1217.78 493.424 1219.26 491.434L1239.53 464.225C1240.86 462.434 1240.84 459.979 1239.51 458.184C1234.73 451.717 1230.25 445.005 1226.11 438.07C1224.94 436.125 1222.64 435.165 1220.45 435.753L1187.87 444.514C1185.44 445.165 1182.91 443.918 1181.95 441.598L1165.34 401.498C1164.39 399.205 1165.27 396.562 1167.4 395.29L1196.63 377.852C1198.55 376.708 1199.47 374.432 1198.93 372.266C1196.95 364.324 1195.36 356.228 1194.18 348C1193.86 345.779 1192.14 344.015 1189.92 343.69L1156.28 338.774C1153.82 338.415 1152 336.308 1152 333.826V290.422C1152 287.911 1153.86 285.789 1156.35 285.464L1190.02 281.06C1192.27 280.767 1194.03 279.003 1194.36 276.764C1195.55 268.756 1197.13 260.875 1199.08 253.14C1199.63 250.97 1198.71 248.688 1196.79 247.541L1167.63 230.15C1165.5 228.878 1164.62 226.235 1165.57 223.942L1182.18 183.842C1183.14 181.522 1185.67 180.275 1188.1 180.927L1220.77 189.711C1222.95 190.298 1225.26 189.344 1226.42 187.405C1230.58 180.481 1235.07 173.78 1239.88 167.324C1241.22 165.529 1241.24 163.067 1239.9 161.272L1219.69 134.138C1218.21 132.148 1218.41 129.371 1220.16 127.616L1250.85 96.924C1252.63 95.1486 1255.45 94.9652 1257.44 96.4955L1284.08 116.977C1285.88 118.358 1288.38 118.353 1290.19 116.999C1296.69 112.159 1303.44 107.635 1310.42 103.449C1312.33 102.299 1313.29 100.038 1312.74 97.8721L1304.53 65.3564C1303.92 62.95 1305.17 60.4616 1307.46 59.5118L1347.56 42.9016C1349.88 41.9407 1352.55 42.8492 1353.81 45.0247L1370.4 73.8156C1371.53 75.7793 1373.84 76.7311 1376.03 76.1772C1383.92 74.1893 1391.96 72.5851 1400.13 71.3856Z"/>
</mask>
<path fill-rule="evenodd" clip-rule="evenodd" d="M1400.13 71.3856C1402.35 71.0606 1404.1 69.3363 1404.43 67.122L1409.85 30.0022C1409.85 30.0021 1409.85 30.002 1409.85 30.0019C1409.85 30.0009 1409.85 30 1409.85 30H1461.97C1461.97 30 1461.97 30.0001 1461.97 30.0003L1466.8 66.9616C1467.09 69.2132 1468.87 70.9782 1471.12 71.3028C1479.37 72.4946 1487.49 74.0992 1495.46 76.095C1497.63 76.6383 1499.9 75.717 1501.05 73.7973L1517.85 45.631C1519.12 43.4993 1521.76 42.6231 1524.06 43.5729L1564.16 60.1831C1566.48 61.144 1567.73 63.6761 1567.07 66.1008L1558.63 97.5183C1558.04 99.707 1559 102.013 1560.94 103.175C1568.12 107.462 1575.06 112.106 1581.74 117.084C1583.53 118.423 1586 118.447 1587.79 117.109L1613.86 97.6881C1615.85 96.2053 1618.63 96.4072 1620.38 98.1623L1651.08 128.854C1652.85 130.629 1653.03 133.446 1651.5 135.437L1631.83 161.032C1630.45 162.83 1630.45 165.331 1631.81 167.149C1636.82 173.87 1641.49 180.857 1645.81 188.086C1646.95 190.009 1649.22 190.974 1651.39 190.425L1682.64 182.525C1685.05 181.917 1687.54 183.166 1688.49 185.46L1705.1 225.56C1706.06 227.88 1705.15 230.552 1702.98 231.806L1675.18 247.822C1673.22 248.953 1672.26 251.258 1672.81 253.454C1674.8 261.36 1676.39 269.418 1677.58 277.607C1677.91 279.853 1679.67 281.627 1681.92 281.921L1713.65 286.07C1716.14 286.396 1718 288.517 1718 291.028V334.432C1718 336.915 1716.18 339.021 1713.72 339.38L1681.85 344.038C1679.63 344.362 1677.91 346.123 1677.59 348.341C1676.37 356.754 1674.72 365.027 1672.67 373.139C1672.11 375.339 1673.06 377.651 1675.03 378.784L1702.74 394.754C1704.92 396.008 1705.83 398.68 1704.87 401L1688.26 441.1C1687.31 443.393 1684.82 444.643 1682.41 444.034L1651.07 436.112C1648.9 435.565 1646.64 436.524 1645.49 438.44C1641.16 445.657 1636.47 452.632 1631.44 459.34C1630.08 461.159 1630.07 463.665 1631.46 465.468L1651.08 490.992C1652.61 492.982 1652.42 495.799 1650.65 497.574L1619.96 528.266C1618.2 530.021 1615.42 530.223 1613.43 528.74L1587.29 509.265C1585.5 507.93 1583.04 507.95 1581.25 509.282C1574.56 514.242 1567.61 518.869 1560.42 523.137C1558.47 524.296 1557.5 526.607 1558.09 528.8L1566.51 560.132C1567.17 562.556 1565.92 565.089 1563.6 566.049L1523.5 582.66C1521.21 583.609 1518.56 582.733 1517.29 580.602L1500.44 552.354C1499.3 550.438 1497.03 549.516 1494.86 550.053C1486.89 552.028 1478.77 553.612 1470.51 554.783C1468.26 555.103 1466.48 556.87 1466.18 559.126L1461.93 591.648C1461.6 594.138 1459.48 596 1456.97 596H1413.57C1411.09 596 1408.98 594.179 1408.62 591.723L1403.81 558.786C1403.48 556.576 1401.73 554.854 1399.52 554.524C1391.36 553.304 1383.32 551.68 1375.44 549.672C1373.24 549.112 1370.92 550.063 1369.79 552.031L1353.25 580.743C1351.99 582.919 1349.32 583.827 1347 582.867L1306.9 566.256C1304.61 565.307 1303.36 562.818 1303.97 560.412L1312.21 527.804C1312.75 525.643 1311.8 523.386 1309.89 522.234C1302.93 518.031 1296.19 513.491 1289.71 508.635C1287.89 507.274 1285.38 507.266 1283.58 508.65L1257.01 529.076C1255.02 530.607 1252.2 530.423 1250.43 528.648L1219.73 497.956C1217.98 496.201 1217.78 493.424 1219.26 491.434L1239.53 464.225C1240.86 462.434 1240.84 459.979 1239.51 458.184C1234.73 451.717 1230.25 445.005 1226.11 438.07C1224.94 436.125 1222.64 435.165 1220.45 435.753L1187.87 444.514C1185.44 445.165 1182.91 443.918 1181.95 441.598L1165.34 401.498C1164.39 399.205 1165.27 396.562 1167.4 395.29L1196.63 377.852C1198.55 376.708 1199.47 374.432 1198.93 372.266C1196.95 364.324 1195.36 356.228 1194.18 348C1193.86 345.779 1192.14 344.015 1189.92 343.69L1156.28 338.774C1153.82 338.415 1152 336.308 1152 333.826V290.422C1152 287.911 1153.86 285.789 1156.35 285.464L1190.02 281.06C1192.27 280.767 1194.03 279.003 1194.36 276.764C1195.55 268.756 1197.13 260.875 1199.08 253.14C1199.63 250.97 1198.71 248.688 1196.79 247.541L1167.63 230.15C1165.5 228.878 1164.62 226.235 1165.57 223.942L1182.18 183.842C1183.14 181.522 1185.67 180.275 1188.1 180.927L1220.77 189.711C1222.95 190.298 1225.26 189.344 1226.42 187.405C1230.58 180.481 1235.07 173.78 1239.88 167.324C1241.22 165.529 1241.24 163.067 1239.9 161.272L1219.69 134.138C1218.21 132.148 1218.41 129.371 1220.16 127.616L1250.85 96.924C1252.63 95.1486 1255.45 94.9652 1257.44 96.4955L1284.08 116.977C1285.88 118.358 1288.38 118.353 1290.19 116.999C1296.69 112.159 1303.44 107.635 1310.42 103.449C1312.33 102.299 1313.29 100.038 1312.74 97.8721L1304.53 65.3564C1303.92 62.95 1305.17 60.4616 1307.46 59.5118L1347.56 42.9016C1349.88 41.9407 1352.55 42.8492 1353.81 45.0247L1370.4 73.8156C1371.53 75.7793 1373.84 76.7311 1376.03 76.1772C1383.92 74.1893 1391.96 72.5851 1400.13 71.3856Z" fill="white"/>
<path d="M1370.4 73.8156L1361.73 78.808L1370.4 73.8156ZM1376.03 76.1772L1378.48 85.874L1376.03 76.1772ZM1347.56 42.9016L1343.73 33.6628L1347.56 42.9016ZM1353.81 45.0247L1362.47 40.0323L1353.81 45.0247ZM1304.53 65.3564L1314.22 62.9059L1304.53 65.3564ZM1307.46 59.5118L1311.29 68.7506L1307.46 59.5118ZM1310.42 103.449L1315.56 112.023L1310.42 103.449ZM1312.74 97.8721L1303.05 100.323L1312.74 97.8721ZM1284.08 116.977L1290.17 109.048L1284.08 116.977ZM1290.19 116.999L1296.17 125.02L1290.19 116.999ZM1250.85 96.924L1243.78 89.853L1250.85 96.924ZM1257.44 96.4955L1251.34 104.424L1257.44 96.4955ZM1220.16 127.616L1213.09 120.545L1220.16 127.616ZM1239.88 167.324L1247.9 173.295L1239.88 167.324ZM1239.9 161.272L1231.88 167.247L1239.9 161.272ZM1220.77 189.711L1223.37 180.054L1220.77 189.711ZM1226.42 187.405L1234.99 192.555L1226.42 187.405ZM1182.18 183.842L1172.94 180.015L1182.18 183.842ZM1188.1 180.927L1185.5 190.584L1188.1 180.927ZM1167.63 230.15L1172.75 221.561L1167.63 230.15ZM1165.57 223.942L1174.81 227.769L1165.57 223.942ZM1199.08 253.14L1208.78 255.583L1199.08 253.14ZM1196.79 247.541L1201.91 238.953L1196.79 247.541ZM1190.02 281.06L1191.32 290.976L1190.02 281.06ZM1194.36 276.764L1184.47 275.293L1194.36 276.764ZM1156.35 285.464L1157.65 295.379L1156.35 285.464ZM1156.28 338.774L1157.72 328.879L1156.28 338.774ZM1194.18 348L1184.28 349.421L1194.18 348ZM1189.92 343.69L1191.36 333.795L1189.92 343.69ZM1196.63 377.852L1191.51 369.264L1196.63 377.852ZM1165.34 401.498L1156.1 405.325L1165.34 401.498ZM1167.4 395.29L1162.28 386.702L1167.4 395.29ZM1226.11 438.07L1234.69 432.941L1226.11 438.07ZM1220.45 435.753L1217.85 426.096L1220.45 435.753ZM1239.53 464.225L1247.55 470.199L1239.53 464.225ZM1239.51 458.184L1231.48 464.135L1239.51 458.184ZM1219.73 497.956L1212.66 505.027L1219.73 497.956ZM1219.26 491.434L1227.28 497.408L1219.26 491.434ZM1257.01 529.076L1263.1 537.005L1257.01 529.076ZM1250.43 528.648L1257.5 521.577L1250.43 528.648ZM1289.71 508.635L1295.7 500.629L1289.71 508.635ZM1283.58 508.65L1289.68 516.578L1283.58 508.65ZM1312.21 527.804L1302.51 525.354L1312.21 527.804ZM1306.9 566.256L1303.07 575.495L1306.9 566.256ZM1303.97 560.412L1313.66 562.862L1303.97 560.412ZM1353.25 580.743L1361.91 585.736L1353.25 580.743ZM1347 582.867L1350.83 573.628L1347 582.867ZM1375.44 549.672L1377.91 539.982L1375.44 549.672ZM1369.79 552.031L1361.13 547.038L1369.79 552.031ZM1403.81 558.786L1393.91 560.232L1403.81 558.786ZM1399.52 554.524L1398.05 564.414L1399.52 554.524ZM1408.62 591.723L1418.51 590.277L1408.62 591.723ZM1461.93 591.648L1471.85 592.945L1461.93 591.648ZM1470.51 554.783L1469.11 544.883L1470.51 554.783ZM1466.18 559.126L1476.1 560.423L1466.18 559.126ZM1500.44 552.354L1491.85 557.476L1500.44 552.354ZM1494.86 550.053L1492.46 540.347L1494.86 550.053ZM1523.5 582.66L1527.33 591.898L1523.5 582.66ZM1517.29 580.602L1508.7 585.724L1517.29 580.602ZM1566.51 560.132L1556.86 562.728L1566.51 560.132ZM1563.6 566.049L1567.43 575.288L1563.6 566.049ZM1560.42 523.137L1565.52 531.735L1560.42 523.137ZM1558.09 528.8L1548.43 531.397L1558.09 528.8ZM1587.29 509.265L1581.32 517.284L1587.29 509.265ZM1619.96 528.266L1627.03 535.337L1619.96 528.266ZM1613.43 528.74L1619.41 520.721L1613.43 528.74ZM1650.65 497.574L1643.58 490.503L1650.65 497.574ZM1631.46 465.468L1623.53 471.562L1631.46 465.468ZM1651.07 436.112L1648.62 445.808L1651.07 436.112ZM1645.49 438.44L1636.92 433.296L1645.49 438.44ZM1688.26 441.1L1697.49 444.927L1688.26 441.1ZM1682.41 444.034L1684.86 434.339L1682.41 444.034ZM1672.67 373.139L1682.36 375.594L1672.67 373.139ZM1675.03 378.784L1680.02 370.119L1675.03 378.784ZM1681.85 344.038L1683.3 353.933L1681.85 344.038ZM1677.59 348.341L1687.48 349.776L1677.59 348.341ZM1713.65 286.07L1712.35 295.986L1713.65 286.07ZM1677.58 277.607L1667.68 279.044L1677.58 277.607ZM1681.92 281.921L1680.62 291.837L1681.92 281.921ZM1675.18 247.822L1670.19 239.158L1675.18 247.822ZM1672.81 253.454L1682.51 251.024L1672.81 253.454ZM1705.1 225.56L1695.86 229.387L1705.1 225.56ZM1702.98 231.806L1707.97 240.47L1702.98 231.806ZM1682.64 182.525L1685.09 192.22L1682.64 182.525ZM1688.49 185.46L1697.73 181.633L1688.49 185.46ZM1645.81 188.086L1637.22 193.209L1645.81 188.086ZM1651.39 190.425L1648.94 180.73L1651.39 190.425ZM1631.83 161.032L1623.9 154.938L1631.83 161.032ZM1631.81 167.149L1639.82 161.171L1631.81 167.149ZM1651.08 128.854L1644 135.925L1651.08 128.854ZM1651.5 135.437L1659.43 141.531L1651.5 135.437ZM1581.74 117.084L1575.76 125.101L1581.74 117.084ZM1587.79 117.109L1593.77 125.128L1587.79 117.109ZM1558.63 97.5183L1548.97 94.9217L1558.63 97.5183ZM1560.94 103.175L1555.82 111.761L1560.94 103.175ZM1564.16 60.1831L1567.99 50.9443L1564.16 60.1831ZM1567.07 66.1008L1557.42 63.5043L1567.07 66.1008ZM1517.85 45.631L1526.44 50.7537L1517.85 45.631ZM1524.06 43.5729L1527.88 34.3341L1524.06 43.5729ZM1495.46 76.095L1497.89 66.3949L1495.46 76.095ZM1501.05 73.7973L1492.46 68.6746L1501.05 73.7973ZM1461.97 30.0003L1452.05 31.2969L1461.97 30.0003ZM1404.43 67.122L1394.53 65.6758L1404.43 67.122ZM1400.13 71.3856L1398.68 61.4917L1400.13 71.3856ZM1466.8 66.9616L1476.72 65.665L1466.8 66.9616ZM1471.12 71.3028L1469.69 81.2001L1471.12 71.3028ZM1613.86 97.6881L1619.84 105.707L1613.86 97.6881ZM1620.38 98.1623L1627.46 91.0912L1620.38 98.1623ZM1702.74 394.754L1697.75 403.419L1702.74 394.754ZM1704.87 401L1695.63 397.173L1704.87 401ZM1187.87 444.514L1190.47 454.171L1187.87 444.514ZM1181.95 441.598L1191.19 437.772L1181.95 441.598ZM1409.85 30.0022L1399.96 28.5561L1409.85 30.0022ZM1399.96 28.5561L1394.53 65.6758L1414.32 68.5682L1419.75 31.4484L1399.96 28.5561ZM1461.97 20H1409.85V40H1461.97V20ZM1476.72 65.665L1471.88 28.7036L1452.05 31.2969L1456.88 68.2583L1476.72 65.665ZM1497.89 66.3949C1489.59 64.3167 1481.14 62.6461 1472.55 61.4054L1469.69 81.2001C1477.6 82.3431 1485.39 83.8817 1493.03 85.7951L1497.89 66.3949ZM1509.26 40.5083L1492.46 68.6746L1509.64 78.92L1526.44 50.7537L1509.26 40.5083ZM1567.99 50.9443L1527.88 34.3341L1520.23 52.8117L1560.33 69.4219L1567.99 50.9443ZM1568.28 100.115L1576.73 68.6974L1557.42 63.5043L1548.97 94.9217L1568.28 100.115ZM1587.72 109.067C1580.77 103.886 1573.54 99.052 1566.07 94.5898L1555.82 111.761C1562.7 115.872 1569.36 120.327 1575.76 125.101L1587.72 109.067ZM1607.89 89.6688L1581.82 109.089L1593.77 125.128L1619.84 105.707L1607.89 89.6688ZM1658.15 121.783L1627.46 91.0912L1613.31 105.233L1644 135.925L1658.15 121.783ZM1639.76 167.127L1659.43 141.531L1643.58 129.342L1623.9 154.938L1639.76 167.127ZM1654.39 182.964C1649.91 175.439 1645.04 168.166 1639.82 161.171L1623.79 173.127C1628.6 179.574 1633.08 186.276 1637.22 193.209L1654.39 182.964ZM1680.19 172.83L1648.94 180.73L1653.84 200.12L1685.09 192.22L1680.19 172.83ZM1714.34 221.733L1697.73 181.633L1679.25 189.286L1695.86 229.387L1714.34 221.733ZM1680.17 256.487L1707.97 240.47L1697.98 223.141L1670.19 239.158L1680.17 256.487ZM1687.48 276.171C1686.24 267.645 1684.58 259.255 1682.51 251.024L1663.11 255.885C1665.01 263.464 1666.54 271.19 1667.68 279.044L1687.48 276.171ZM1714.95 276.154L1683.22 272.005L1680.62 291.837L1712.35 295.986L1714.95 276.154ZM1728 334.432V291.028H1708V334.432H1728ZM1683.3 353.933L1715.17 349.275L1712.28 329.485L1680.41 334.143L1683.3 353.933ZM1682.36 375.594C1684.5 367.148 1686.21 358.533 1687.48 349.776L1667.69 346.907C1666.52 354.974 1664.94 362.907 1662.97 370.685L1682.36 375.594ZM1707.73 386.089L1680.02 370.119L1670.03 387.448L1697.75 403.419L1707.73 386.089ZM1697.49 444.927L1714.1 404.827L1695.63 397.173L1679.02 437.273L1697.49 444.927ZM1648.62 445.808L1679.96 453.73L1684.86 434.339L1653.52 426.417L1648.62 445.808ZM1639.44 465.338C1644.68 458.357 1649.56 451.097 1654.07 443.584L1636.92 433.296C1632.76 440.218 1628.26 446.908 1623.44 453.342L1639.44 465.338ZM1659 484.897L1639.38 459.373L1623.53 471.562L1643.15 497.086L1659 484.897ZM1627.03 535.337L1657.72 504.646L1643.58 490.503L1612.88 521.195L1627.03 535.337ZM1581.32 517.284L1607.46 536.76L1619.41 520.721L1593.26 501.245L1581.32 517.284ZM1565.52 531.735C1573.01 527.292 1580.24 522.476 1587.2 517.314L1575.29 501.25C1568.87 506.008 1562.21 510.445 1555.31 514.538L1565.52 531.735ZM1576.17 557.535L1567.75 526.204L1548.43 531.397L1556.86 562.728L1576.17 557.535ZM1527.33 591.898L1567.43 575.288L1559.77 556.811L1519.67 573.421L1527.33 591.898ZM1491.85 557.476L1508.7 585.724L1525.88 575.479L1509.03 547.231L1491.85 557.476ZM1471.92 564.684C1480.51 563.465 1488.97 561.816 1497.27 559.759L1492.46 540.347C1484.82 542.241 1477.03 543.759 1469.11 544.883L1471.92 564.684ZM1471.85 592.945L1476.1 560.423L1456.27 557.83L1452.01 590.352L1471.85 592.945ZM1413.57 606H1456.97V586H1413.57V606ZM1393.91 560.232L1398.73 593.169L1418.51 590.277L1413.7 557.34L1393.91 560.232ZM1372.97 559.363C1381.18 561.453 1389.55 563.144 1398.05 564.414L1401 544.634C1393.17 543.464 1385.47 541.906 1377.91 539.982L1372.97 559.363ZM1361.91 585.736L1378.45 557.023L1361.13 547.038L1344.58 575.751L1361.91 585.736ZM1303.07 575.495L1343.17 592.105L1350.83 573.628L1310.73 557.018L1303.07 575.495ZM1302.51 525.354L1294.27 557.961L1313.66 562.862L1321.9 530.255L1302.51 525.354ZM1283.71 516.641C1290.46 521.694 1297.48 526.42 1304.72 530.795L1315.06 513.673C1308.38 509.642 1301.92 505.287 1295.7 500.629L1283.71 516.641ZM1263.1 537.005L1289.68 516.578L1277.49 500.722L1250.91 521.148L1263.1 537.005ZM1212.66 505.027L1243.35 535.719L1257.5 521.577L1226.81 490.885L1212.66 505.027ZM1231.51 458.251L1211.24 485.459L1227.28 497.408L1247.55 470.199L1231.51 458.251ZM1217.52 443.199C1221.83 450.417 1226.49 457.404 1231.48 464.135L1247.55 452.233C1242.96 446.03 1238.66 439.592 1234.69 432.941L1217.52 443.199ZM1190.47 454.171L1223.05 445.41L1217.85 426.096L1185.27 434.857L1190.47 454.171ZM1156.1 405.325L1172.71 445.425L1191.19 437.772L1174.58 397.671L1156.1 405.325ZM1191.51 369.264L1162.28 386.702L1172.52 403.879L1201.76 386.44L1191.51 369.264ZM1184.28 349.421C1185.51 357.986 1187.17 366.415 1189.23 374.684L1208.64 369.847C1206.74 362.233 1205.21 354.47 1204.08 346.58L1184.28 349.421ZM1154.83 348.668L1188.47 353.585L1191.36 333.795L1157.72 328.879L1154.83 348.668ZM1142 290.422V333.826H1162V290.422H1142ZM1188.73 271.145L1155.06 275.548L1157.65 295.379L1191.32 290.976L1188.73 271.145ZM1189.39 250.697C1187.36 258.751 1185.71 266.956 1184.47 275.293L1204.25 278.236C1205.4 270.556 1206.91 262.999 1208.78 255.583L1189.39 250.697ZM1162.51 238.738L1191.66 256.13L1201.91 238.953L1172.75 221.561L1162.51 238.738ZM1172.94 180.015L1156.33 220.115L1174.81 227.769L1191.42 187.668L1172.94 180.015ZM1223.37 180.054L1190.7 171.27L1185.5 190.584L1218.17 199.368L1223.37 180.054ZM1231.86 161.353C1226.86 168.072 1222.18 175.047 1217.85 182.255L1234.99 192.555C1238.98 185.915 1243.29 179.487 1247.9 173.295L1231.86 161.353ZM1211.67 140.112L1231.88 167.247L1247.92 155.298L1227.71 128.164L1211.67 140.112ZM1243.78 89.853L1213.09 120.545L1227.23 134.687L1257.92 103.995L1243.78 89.853ZM1290.17 109.048L1263.53 88.5672L1251.34 104.424L1277.99 124.905L1290.17 109.048ZM1305.27 94.8746C1298.01 99.2321 1290.99 103.941 1284.22 108.979L1296.17 125.02C1302.4 120.377 1308.87 116.038 1315.56 112.023L1305.27 94.8746ZM1294.83 67.8069L1303.05 100.323L1322.44 95.4216L1314.22 62.9059L1294.83 67.8069ZM1343.73 33.6628L1303.63 50.273L1311.29 68.7506L1351.39 52.1404L1343.73 33.6628ZM1379.06 68.8231L1362.47 40.0323L1345.14 50.0172L1361.73 78.808L1379.06 68.8231ZM1398.68 61.4917C1390.17 62.7404 1381.8 64.4106 1373.59 66.4804L1378.48 85.874C1386.04 83.9681 1393.75 82.4299 1401.58 81.2796L1398.68 61.4917ZM1361.73 78.808C1365.14 84.7294 1372.03 87.4982 1378.48 85.874L1373.59 66.4804C1375.64 65.964 1377.91 66.8293 1379.06 68.8231L1361.73 78.808ZM1351.39 52.1404C1349.07 53.1012 1346.39 52.1927 1345.14 50.0172L1362.47 40.0323C1358.71 33.5057 1350.69 30.7802 1343.73 33.6628L1351.39 52.1404ZM1314.22 62.9059C1314.83 65.3124 1313.58 67.8007 1311.29 68.7506L1303.63 50.273C1296.75 53.1226 1293.01 60.5876 1294.83 67.8069L1314.22 62.9059ZM1315.56 112.023C1321.18 108.651 1324.09 101.952 1322.44 95.4216L1303.05 100.323C1302.49 98.1242 1303.48 95.9476 1305.27 94.8746L1315.56 112.023ZM1277.99 124.905C1283.4 129.071 1290.83 128.991 1296.17 125.02L1284.22 108.979C1285.92 107.715 1288.35 107.646 1290.17 109.048L1277.99 124.905ZM1257.92 103.995C1256.15 105.771 1253.33 105.954 1251.34 104.424L1263.53 88.5672C1257.56 83.9766 1249.11 84.5267 1243.78 89.853L1257.92 103.995ZM1227.71 128.164C1229.19 130.155 1228.99 132.932 1227.23 134.687L1213.09 120.545C1207.83 125.81 1207.22 134.141 1211.67 140.112L1227.71 128.164ZM1247.9 173.295C1251.82 168.028 1251.95 160.71 1247.92 155.298L1231.88 167.247C1230.53 165.425 1230.61 163.029 1231.86 161.353L1247.9 173.295ZM1218.17 199.368C1224.76 201.139 1231.58 198.241 1234.99 192.555L1217.85 182.255C1218.94 180.447 1221.15 179.458 1223.37 180.054L1218.17 199.368ZM1191.42 187.668C1190.46 189.988 1187.93 191.235 1185.5 190.584L1190.7 171.27C1183.42 169.314 1175.83 173.056 1172.94 180.015L1191.42 187.668ZM1172.75 221.561C1174.88 222.833 1175.76 225.476 1174.81 227.769L1156.33 220.115C1153.48 226.995 1156.11 234.923 1162.51 238.738L1172.75 221.561ZM1208.78 255.583C1210.38 249.219 1207.7 242.409 1201.91 238.953L1191.66 256.13C1189.71 254.966 1188.88 252.721 1189.39 250.697L1208.78 255.583ZM1191.32 290.976C1198.09 290.091 1203.28 284.8 1204.25 278.236L1184.47 275.293C1184.78 273.205 1186.45 271.443 1188.73 271.145L1191.32 290.976ZM1162 290.422C1162 292.932 1160.14 295.054 1157.65 295.379L1155.06 275.548C1147.59 276.525 1142 282.889 1142 290.422H1162ZM1157.72 328.879C1160.18 329.238 1162 331.344 1162 333.826H1142C1142 341.272 1147.46 347.592 1154.83 348.668L1157.72 328.879ZM1204.08 346.58C1203.15 340.065 1198.06 334.774 1191.36 333.795L1188.47 353.585C1186.22 353.256 1184.58 351.494 1184.28 349.421L1204.08 346.58ZM1201.76 386.44C1207.54 382.991 1210.22 376.202 1208.64 369.847L1189.23 374.684C1188.73 372.663 1189.57 370.425 1191.51 369.264L1201.76 386.44ZM1174.58 397.671C1175.53 399.964 1174.65 402.607 1172.52 403.879L1162.28 386.702C1155.88 390.517 1153.25 398.445 1156.1 405.325L1174.58 397.671ZM1234.69 432.941C1231.28 427.236 1224.45 424.322 1217.85 426.096L1223.05 445.41C1220.82 446.008 1218.61 445.013 1217.52 443.199L1234.69 432.941ZM1247.55 470.199C1251.57 464.799 1251.45 457.498 1247.55 452.233L1231.48 464.135C1230.24 462.459 1230.16 460.069 1231.51 458.251L1247.55 470.199ZM1226.81 490.885C1228.56 492.64 1228.76 495.417 1227.28 497.408L1211.24 485.459C1206.79 491.431 1207.4 499.762 1212.66 505.027L1226.81 490.885ZM1250.91 521.148C1252.9 519.618 1255.72 519.801 1257.5 521.577L1243.35 535.719C1248.68 541.045 1257.13 541.595 1263.1 537.005L1250.91 521.148ZM1295.7 500.629C1290.36 496.636 1282.92 496.547 1277.49 500.722L1289.68 516.578C1287.85 517.984 1285.41 517.911 1283.71 516.641L1295.7 500.629ZM1321.9 530.255C1323.55 523.739 1320.66 517.052 1315.06 513.673L1304.72 530.795C1302.94 529.72 1301.96 527.548 1302.51 525.354L1321.9 530.255ZM1310.73 557.018C1313.02 557.967 1314.27 560.456 1313.66 562.862L1294.27 557.961C1292.45 565.181 1296.19 572.646 1303.07 575.495L1310.73 557.018ZM1344.58 575.751C1345.83 573.575 1348.51 572.667 1350.83 573.628L1343.17 592.105C1350.13 594.988 1358.15 592.262 1361.91 585.736L1344.58 575.751ZM1377.91 539.982C1371.46 538.338 1364.54 541.104 1361.13 547.038L1378.45 557.023C1377.3 559.021 1375.02 559.885 1372.97 559.363L1377.91 539.982ZM1413.7 557.34C1412.73 550.677 1407.48 545.602 1401 544.634L1398.05 564.414C1395.99 564.106 1394.24 562.475 1393.91 560.232L1413.7 557.34ZM1413.57 586C1416.05 586 1418.16 587.821 1418.51 590.277L1398.73 593.169C1399.8 600.537 1406.12 606 1413.57 606V586ZM1452.01 590.352C1452.34 587.862 1454.46 586 1456.97 586V606C1464.5 606 1470.87 600.414 1471.85 592.945L1452.01 590.352ZM1469.11 544.883C1462.5 545.82 1457.16 551.026 1456.27 557.83L1476.1 560.423C1475.8 562.714 1474.02 564.386 1471.92 564.684L1469.11 544.883ZM1509.03 547.231C1505.59 541.455 1498.81 538.773 1492.46 540.347L1497.27 559.759C1495.25 560.26 1493.01 559.421 1491.85 557.476L1509.03 547.231ZM1519.67 573.421C1521.97 572.471 1524.61 573.347 1525.88 575.479L1508.7 585.724C1512.52 592.119 1520.45 594.748 1527.33 591.898L1519.67 573.421ZM1556.86 562.728C1556.21 560.304 1557.45 557.771 1559.77 556.811L1567.43 575.288C1574.39 572.406 1578.13 564.809 1576.17 557.535L1556.86 562.728ZM1555.31 514.538C1549.59 517.939 1546.65 524.783 1548.43 531.397L1567.75 526.204C1568.35 528.431 1567.35 530.654 1565.52 531.735L1555.31 514.538ZM1593.26 501.245C1587.86 497.22 1580.55 497.344 1575.29 501.25L1587.2 517.314C1585.53 518.557 1583.14 518.639 1581.32 517.284L1593.26 501.245ZM1612.88 521.195C1614.64 519.44 1617.42 519.238 1619.41 520.721L1607.46 536.76C1613.43 541.208 1621.76 540.603 1627.03 535.337L1612.88 521.195ZM1643.15 497.086C1641.62 495.096 1641.8 492.279 1643.58 490.503L1657.72 504.646C1663.04 499.319 1663.59 490.869 1659 484.897L1643.15 497.086ZM1623.44 453.342C1619.44 458.677 1619.35 466.128 1623.53 471.562L1639.38 459.373C1640.79 461.203 1640.72 463.641 1639.44 465.338L1623.44 453.342ZM1653.52 426.417C1646.99 424.766 1640.29 427.676 1636.92 433.296L1654.07 443.584C1652.99 445.372 1650.82 446.363 1648.62 445.808L1653.52 426.417ZM1679.02 437.273C1679.97 434.98 1682.45 433.731 1684.86 434.339L1679.96 453.73C1687.18 455.554 1694.64 451.807 1697.49 444.927L1679.02 437.273ZM1662.97 370.685C1661.34 377.133 1664.11 384.033 1670.03 387.448L1680.02 370.119C1682.01 371.269 1682.88 373.544 1682.36 375.594L1662.97 370.685ZM1680.41 334.143C1673.72 335.12 1668.63 340.401 1667.69 346.907L1687.48 349.776C1687.18 351.846 1685.55 353.604 1683.3 353.933L1680.41 334.143ZM1708 334.432C1708 331.95 1709.82 329.844 1712.28 329.485L1715.17 349.275C1722.54 348.198 1728 341.879 1728 334.432H1708ZM1712.35 295.986C1709.86 295.66 1708 293.539 1708 291.028H1728C1728 283.495 1722.41 277.131 1714.95 276.154L1712.35 295.986ZM1667.68 279.044C1668.64 285.63 1673.84 290.949 1680.62 291.837L1683.22 272.005C1685.5 272.304 1687.17 274.076 1687.48 276.171L1667.68 279.044ZM1670.19 239.158C1664.27 242.566 1661.5 249.445 1663.11 255.885L1682.51 251.024C1683.03 253.071 1682.16 255.34 1680.17 256.487L1670.19 239.158ZM1695.86 229.387C1694.9 227.067 1695.81 224.395 1697.98 223.141L1707.97 240.47C1714.49 236.71 1717.22 228.692 1714.34 221.733L1695.86 229.387ZM1685.09 192.22C1682.69 192.829 1680.2 191.58 1679.25 189.286L1697.73 181.633C1694.88 174.753 1687.41 171.006 1680.19 172.83L1685.09 192.22ZM1637.22 193.209C1640.58 198.849 1647.3 201.774 1653.84 200.12L1648.94 180.73C1651.14 180.173 1653.32 181.169 1654.39 182.964L1637.22 193.209ZM1623.9 154.938C1619.73 160.36 1619.81 167.794 1623.79 173.127L1639.82 161.171C1641.09 162.868 1641.16 165.301 1639.76 167.127L1623.9 154.938ZM1644 135.925C1642.23 134.15 1642.05 131.333 1643.58 129.342L1659.43 141.531C1664.02 135.559 1663.47 127.109 1658.15 121.783L1644 135.925ZM1575.76 125.101C1581.03 129.028 1588.35 129.162 1593.77 125.128L1581.82 109.089C1583.64 107.731 1586.04 107.817 1587.72 109.067L1575.76 125.101ZM1548.97 94.9217C1547.19 101.521 1550.11 108.353 1555.82 111.761L1566.07 94.5898C1567.89 95.6738 1568.88 97.8927 1568.28 100.115L1548.97 94.9217ZM1560.33 69.4219C1558.01 68.4611 1556.76 65.9289 1557.42 63.5043L1576.73 68.6974C1578.69 61.4233 1574.94 53.8269 1567.99 50.9443L1560.33 69.4219ZM1526.44 50.7537C1525.17 52.8854 1522.52 53.7616 1520.23 52.8117L1527.88 34.3341C1521.01 31.4845 1513.08 34.1132 1509.26 40.5083L1526.44 50.7537ZM1493.03 85.7951C1499.39 87.3886 1506.19 84.7082 1509.64 78.92L1492.46 68.6746C1493.62 66.7259 1495.87 65.888 1497.89 66.3949L1493.03 85.7951ZM1461.97 40C1456.95 40 1452.7 36.2795 1452.05 31.2969L1471.88 28.7036C1471.23 23.7207 1466.98 20 1461.97 20V40ZM1419.85 30.0019C1419.85 35.5104 1415.39 40 1409.85 40V20C1404.32 20 1399.85 24.4913 1399.85 30.0019H1419.85ZM1394.53 65.6758C1394.86 63.428 1396.61 61.795 1398.68 61.4917L1401.58 81.2796C1408.08 80.3262 1413.34 75.2446 1414.32 68.5682L1394.53 65.6758ZM1456.88 68.2583C1457.77 75.0475 1463.1 80.2484 1469.69 81.2001L1472.55 61.4054C1474.64 61.7081 1476.42 63.3789 1476.72 65.665L1456.88 68.2583ZM1619.84 105.707C1617.85 107.19 1615.07 106.988 1613.31 105.233L1627.46 91.0912C1622.19 85.8258 1613.86 85.2203 1607.89 89.6688L1619.84 105.707ZM1697.75 403.419C1695.57 402.165 1694.67 399.493 1695.63 397.173L1714.1 404.827C1716.99 397.868 1714.26 389.85 1707.73 386.089L1697.75 403.419ZM1185.27 434.857C1187.7 434.205 1190.23 435.452 1191.19 437.772L1172.71 445.425C1175.59 452.384 1183.19 456.126 1190.47 454.171L1185.27 434.857ZM1419.75 31.4484C1419.82 30.9694 1419.85 30.486 1419.85 30.0019H1399.85C1399.85 29.5181 1399.89 29.0348 1399.96 28.5561L1419.75 31.4484Z" fill="black" mask="url(#path-1-inside-1)"/>
<circle cx="1435" cy="313" r="194.914" fill="black"/>
<path d="M1406.32 367.799L1435.74 409.816L1442.04 405.403L1427.75 384.995L1450.75 408.253L1449.55 400.149L1452.25 398.258L1437.96 377.85L1461.25 400.898L1459.66 393.514L1462.36 391.623L1447.86 370.915L1471.16 393.963L1469.56 386.58L1472.57 384.478L1458.07 363.77L1481.06 387.028L1479.77 379.435L1483.07 377.123L1468.57 356.415L1491.56 379.673L1490.27 372.08L1493.27 369.978L1478.77 349.27L1501.77 372.528L1500.48 364.935L1503.48 362.833L1488.98 342.125L1511.97 365.383L1510.68 357.79L1513.38 355.899L1498.88 335.19L1522.18 358.238L1520.88 350.645L1523.59 348.754L1509.09 328.045L1532.38 351.093L1531.09 343.5L1534.09 341.399L1519.59 320.69L1542.58 343.949L1541.29 336.355L1544.29 334.254L1529.79 313.545L1552.79 336.804L1551.5 329.21L1554.14 320.205L1531.02 287.192L1522.47 286.473L1517.96 289.625L1511.06 285.514L1512.56 293.408L1507.76 296.77L1500.86 292.659L1502.36 300.553L1497.56 303.915L1490.65 299.804L1492.15 307.698L1487.35 311.06L1480.45 306.949L1481.95 314.843L1477.15 318.205L1470.24 314.094L1472.05 321.778L1467.54 324.93L1460.04 321.239L1461.54 329.133L1457.04 332.285L1449.84 328.384L1451.34 336.278L1446.84 339.43L1439.63 335.529L1441.13 343.422L1436.63 346.575L1429.43 342.674L1430.93 350.567L1426.73 353.509L1419.52 349.608L1420.73 357.712L1415.92 361.075L1409.02 356.964L1410.52 364.857L1406.32 367.799Z" fill="white"/>
<path d="M1436.02 420.437L1447.08 436.23C1448.03 437.588 1447.7 439.458 1446.34 440.409L1418.85 459.663C1417.49 460.613 1415.62 460.283 1414.67 458.926L1403.61 443.133C1402.66 441.776 1402.99 439.905 1404.35 438.955L1431.84 419.7C1433.2 418.75 1435.07 419.08 1436.02 420.437Z" fill="white"/>
<path d="M1428.48 414.899L1400.98 434.153C1399.63 435.103 1397.76 434.773 1396.81 433.416L1370.62 396.014C1369.67 394.657 1370 392.786 1371.35 391.836L1398.85 372.582C1400.21 371.632 1402.08 371.961 1403.03 373.319L1429.22 410.72C1430.17 412.078 1429.84 413.948 1428.48 414.899Z" fill="white"/>
<path d="M1395.49 367.78L1367.99 387.034C1366.63 387.985 1364.76 387.655 1363.81 386.298L1353.17 371.105C1352.22 369.747 1352.55 367.877 1353.91 366.926L1381.41 347.672C1382.77 346.722 1384.64 347.052 1385.59 348.409L1396.23 363.602C1397.18 364.959 1396.85 366.83 1395.49 367.78Z" fill="white"/>
<path fill-rule="evenodd" clip-rule="evenodd" d="M1478.34 200.346L1472.43 191.907C1462.04 177.076 1441.6 173.471 1426.77 183.856C1425.29 184.894 1424.93 186.939 1425.97 188.422L1481.03 267.066C1482.07 268.549 1484.12 268.91 1485.6 267.871C1500.43 257.486 1504.04 237.045 1493.65 222.214L1488.01 214.157L1479.19 220.335C1475.37 223.006 1470.12 222.079 1467.45 218.265C1464.77 214.452 1465.7 209.195 1469.52 206.525L1478.34 200.346Z" fill="white"/>
<path d="M1462.7 249.87L1436.03 211.78L1430.32 215.781L1443.27 234.281L1422.43 213.197L1423.52 220.543L1421.07 222.258L1434.02 240.759L1412.91 219.864L1414.35 226.558L1411.9 228.272L1425.05 247.046L1403.93 226.151L1405.37 232.845L1402.65 234.75L1415.79 253.523L1394.95 232.438L1396.12 239.322L1393.13 241.418L1406.27 260.191L1385.43 239.106L1386.6 245.99L1383.88 247.895L1397.02 266.668L1376.18 245.583L1377.35 252.467L1374.63 254.372L1387.77 273.145L1366.93 252.06L1368.1 258.944L1365.65 260.659L1378.79 279.432L1357.68 258.538L1358.85 265.421L1356.4 267.136L1369.54 285.909L1348.42 265.015L1349.6 271.899L1346.87 273.804L1360.02 292.577L1339.17 271.492L1340.35 278.376L1337.62 280.281L1350.77 299.054L1329.92 277.969L1331.09 284.853L1328.7 293.017L1349.66 322.945L1357.41 323.597L1361.49 320.739L1367.75 324.466L1366.39 317.31L1370.74 314.262L1377 317.989L1375.64 310.833L1379.99 307.785L1386.25 311.511L1384.89 304.355L1389.24 301.307L1395.5 305.034L1394.14 297.878L1398.5 294.83L1404.75 298.557L1403.12 291.591L1407.2 288.734L1414 292.08L1412.64 284.924L1416.72 282.066L1423.25 285.602L1421.89 278.446L1425.97 275.589L1432.51 279.125L1431.14 271.969L1435.22 269.111L1441.76 272.648L1440.39 265.492L1444.2 262.825L1450.73 266.361L1449.64 259.014L1454 255.966L1460.26 259.693L1458.9 252.537L1462.7 249.87Z" fill="white"/>
<path d="M1318.93 322.2L1329 291.878L1350.87 323.108L1318.93 322.2Z" fill="white"/>
<path d="M29.9941 512V114.004H302.836V181.332H110.354V275.537H276.502V342.865H110.354V512H29.9941ZM368.264 512V114.004H488.531L560.746 385.488L632.146 114.004H752.686V512H678.027V198.707L599.025 512H521.652L442.922 198.707V512H368.264ZM922.092 512V181.332H803.996V114.004H1120.28V181.332H1002.45V512H922.092Z" fill="#1E4F7A"/>
<path d="M1758.72 513V115.004H1927.86C1970.39 115.004 2001.25 118.624 2020.43 125.863C2039.8 132.922 2055.27 145.591 2066.86 163.871C2078.44 182.151 2084.23 203.055 2084.23 226.584C2084.23 256.447 2075.45 281.152 2057.9 300.699C2040.34 320.065 2014.1 332.282 1979.17 337.35C1996.54 347.485 2010.84 358.616 2022.06 370.742C2033.46 382.868 2048.76 404.406 2067.94 435.355L2116.54 513H2020.43L1962.34 426.396C1941.7 395.447 1927.59 375.991 1919.98 368.027C1912.38 359.883 1904.33 354.363 1895.82 351.467C1887.32 348.39 1873.83 346.852 1855.37 346.852H1839.08V513H1758.72ZM1839.08 283.324H1898.54C1937.09 283.324 1961.16 281.695 1970.75 278.438C1980.34 275.18 1987.86 269.569 1993.29 261.605C1998.71 253.642 2001.43 243.688 2001.43 231.742C2001.43 218.349 1997.81 207.58 1990.57 199.436C1983.51 191.11 1973.47 185.861 1960.44 183.689C1953.92 182.785 1934.37 182.332 1901.79 182.332H1839.08V283.324Z" fill="#1E4F7A"/>
<path d="M29.8086 773V713.587H69.8901V720.598H37.6709V738.998H65.5537V746.009H37.6709V773H29.8086ZM77.7524 744.063C77.7524 734.202 80.4002 726.488 85.6958 720.922C90.9914 715.33 97.827 712.533 106.203 712.533C111.687 712.533 116.632 713.844 121.036 716.464C125.44 719.085 128.79 722.746 131.086 727.447C133.41 732.121 134.572 737.431 134.572 743.375C134.572 749.4 133.356 754.79 130.924 759.545C128.493 764.3 125.048 767.907 120.59 770.366C116.132 772.797 111.323 774.013 106.162 774.013C100.569 774.013 95.571 772.662 91.167 769.96C86.763 767.259 83.4263 763.571 81.1567 758.896C78.8872 754.222 77.7524 749.278 77.7524 744.063ZM85.8579 744.185C85.8579 751.345 87.7762 756.992 91.6128 761.125C95.4764 765.232 100.313 767.286 106.122 767.286C112.039 767.286 116.902 765.205 120.711 761.044C124.548 756.884 126.466 750.98 126.466 743.334C126.466 738.498 125.642 734.283 123.994 730.689C122.373 727.069 119.982 724.273 116.821 722.3C113.687 720.301 110.161 719.301 106.243 719.301C100.677 719.301 95.8817 721.22 91.856 725.056C87.8573 728.866 85.8579 735.242 85.8579 744.185ZM144.866 773V713.587H171.208C176.504 713.587 180.53 714.127 183.286 715.208C186.042 716.262 188.243 718.139 189.892 720.841C191.54 723.543 192.364 726.529 192.364 729.798C192.364 734.013 190.999 737.566 188.271 740.457C185.542 743.347 181.327 745.185 175.626 745.968C177.706 746.968 179.287 747.954 180.368 748.927C182.664 751.034 184.839 753.668 186.893 756.83L197.227 773H187.338L179.476 760.639C177.18 757.073 175.288 754.344 173.802 752.453C172.316 750.561 170.979 749.237 169.79 748.481C168.628 747.724 167.439 747.198 166.224 746.9C165.332 746.711 163.873 746.617 161.847 746.617H152.728V773H144.866ZM152.728 739.808H169.628C173.221 739.808 176.031 739.443 178.058 738.714C180.084 737.957 181.624 736.769 182.678 735.147C183.731 733.499 184.258 731.716 184.258 729.798C184.258 726.988 183.232 724.678 181.178 722.868C179.152 721.057 175.937 720.152 171.533 720.152H152.728V739.808ZM200.712 756.141L207.805 755.168C207.994 759.707 208.845 762.814 210.358 764.489C211.871 766.164 213.965 767.002 216.64 767.002C218.612 767.002 220.314 766.556 221.746 765.665C223.178 764.746 224.164 763.517 224.705 761.977C225.245 760.41 225.515 757.924 225.515 754.52V713.587H233.377V754.074C233.377 759.045 232.77 762.895 231.554 765.624C230.365 768.353 228.46 770.433 225.839 771.865C223.246 773.297 220.193 774.013 216.68 774.013C211.466 774.013 207.467 772.514 204.684 769.515C201.928 766.516 200.604 762.058 200.712 756.141ZM239.7 773L262.517 713.587H270.987L295.303 773H286.347L279.417 755.006H254.573L248.048 773H239.7ZM256.843 748.603H276.985L270.784 732.148C268.893 727.15 267.488 723.043 266.569 719.828C265.813 723.638 264.746 727.42 263.368 731.176L256.843 748.603ZM301.585 773V713.587H322.051C326.671 713.587 330.197 713.871 332.629 714.438C336.033 715.222 338.938 716.64 341.342 718.693C344.476 721.341 346.813 724.732 348.354 728.866C349.921 732.972 350.704 737.674 350.704 742.969C350.704 747.481 350.177 751.48 349.124 754.965C348.07 758.451 346.719 761.342 345.071 763.638C343.423 765.908 341.612 767.704 339.64 769.028C337.695 770.325 335.331 771.311 332.548 771.987C329.792 772.662 326.617 773 323.024 773H301.585ZM309.447 765.989H322.132C326.05 765.989 329.117 765.624 331.332 764.895C333.575 764.165 335.358 763.138 336.682 761.814C338.546 759.95 339.991 757.451 341.018 754.317C342.072 751.156 342.599 747.333 342.599 742.848C342.599 736.633 341.572 731.865 339.519 728.542C337.492 725.191 335.02 722.949 332.102 721.814C329.995 721.003 326.604 720.598 321.93 720.598H309.447V765.989ZM359.174 744.063C359.174 734.202 361.822 726.488 367.118 720.922C372.413 715.33 379.249 712.533 387.625 712.533C393.109 712.533 398.054 713.844 402.458 716.464C406.861 719.085 410.212 722.746 412.508 727.447C414.832 732.121 415.994 737.431 415.994 743.375C415.994 749.4 414.778 754.79 412.346 759.545C409.915 764.3 406.47 767.907 402.012 770.366C397.554 772.797 392.744 774.013 387.584 774.013C381.991 774.013 376.993 772.662 372.589 769.96C368.185 767.259 364.848 763.571 362.579 758.896C360.309 754.222 359.174 749.278 359.174 744.063ZM367.28 744.185C367.28 751.345 369.198 756.992 373.035 761.125C376.898 765.232 381.735 767.286 387.543 767.286C393.46 767.286 398.324 765.205 402.133 761.044C405.97 756.884 407.888 750.98 407.888 743.334C407.888 738.498 407.064 734.283 405.416 730.689C403.795 727.069 401.404 724.273 398.243 722.3C395.109 720.301 391.583 719.301 387.665 719.301C382.099 719.301 377.304 721.22 373.278 725.056C369.279 728.866 367.28 735.242 367.28 744.185ZM426.288 773V713.587H452.63C457.926 713.587 461.952 714.127 464.708 715.208C467.463 716.262 469.665 718.139 471.313 720.841C472.962 723.543 473.786 726.529 473.786 729.798C473.786 734.013 472.421 737.566 469.692 740.457C466.964 743.347 462.749 745.185 457.048 745.968C459.128 746.968 460.709 747.954 461.79 748.927C464.086 751.034 466.261 753.668 468.314 756.83L478.649 773H468.76L460.898 760.639C458.601 757.073 456.71 754.344 455.224 752.453C453.738 750.561 452.401 749.237 451.212 748.481C450.05 747.724 448.861 747.198 447.646 746.9C446.754 746.711 445.295 746.617 443.269 746.617H434.15V773H426.288ZM434.15 739.808H451.05C454.643 739.808 457.453 739.443 459.479 738.714C461.506 737.957 463.046 736.769 464.1 735.147C465.153 733.499 465.68 731.716 465.68 729.798C465.68 726.988 464.653 724.678 462.6 722.868C460.574 721.057 457.359 720.152 452.955 720.152H434.15V739.808ZM479.622 773L502.438 713.587H510.909L535.225 773H526.269L519.338 755.006H494.495L487.97 773H479.622ZM496.765 748.603H516.907L510.706 732.148C508.815 727.15 507.41 723.043 506.491 719.828C505.735 723.638 504.667 727.42 503.29 731.176L496.765 748.603ZM559.744 773V713.587H571.578L585.641 755.654C586.938 759.572 587.884 762.503 588.478 764.449C589.153 762.287 590.207 759.113 591.639 754.925L605.864 713.587H616.442V773H608.863V723.273L591.599 773H584.506L567.323 722.422V773H559.744ZM629.289 773V713.587H672.248V720.598H637.151V738.795H670.019V745.766H637.151V765.989H673.626V773H629.289ZM678.449 773L701.428 742.037L681.164 713.587H690.526L701.306 728.825C703.549 731.986 705.143 734.418 706.088 736.12C707.412 733.959 708.979 731.703 710.79 729.352L722.745 713.587H731.296L710.425 741.591L732.917 773H723.191L708.236 751.804C707.399 750.588 706.534 749.264 705.643 747.833C704.319 749.994 703.373 751.48 702.806 752.291L687.892 773H678.449ZM741.185 773V713.587H749.047V773H741.185ZM805.34 752.169L813.202 754.155C811.554 760.612 808.582 765.543 804.286 768.947C800.017 772.325 794.789 774.013 788.602 774.013C782.199 774.013 776.984 772.716 772.958 770.123C768.96 767.502 765.907 763.719 763.799 758.775C761.719 753.831 760.679 748.521 760.679 742.848C760.679 736.66 761.854 731.27 764.205 726.677C766.582 722.057 769.946 718.558 774.296 716.181C778.673 713.776 783.482 712.574 788.724 712.574C794.668 712.574 799.666 714.087 803.719 717.113C807.771 720.139 810.595 724.394 812.189 729.879L804.448 731.703C803.07 727.38 801.071 724.232 798.45 722.26C795.829 720.287 792.533 719.301 788.562 719.301C783.995 719.301 780.172 720.396 777.092 722.584C774.039 724.772 771.891 727.717 770.648 731.419C769.406 735.093 768.784 738.889 768.784 742.807C768.784 747.86 769.514 752.277 770.973 756.06C772.459 759.815 774.755 762.625 777.862 764.489C780.969 766.354 784.333 767.286 787.954 767.286C792.358 767.286 796.086 766.016 799.139 763.476C802.192 760.936 804.259 757.167 805.34 752.169ZM816.404 773L839.221 713.587H847.691L872.007 773H863.051L856.121 755.006H831.277L824.752 773H816.404ZM833.547 748.603H853.689L847.488 732.148C845.597 727.15 844.192 723.043 843.273 719.828C842.517 723.638 841.45 727.42 840.072 731.176L833.547 748.603ZM878.208 773V713.587H886.273L917.479 760.234V713.587H925.017V773H916.952L885.746 726.312V773H878.208ZM931.745 773L954.562 713.587H963.032L987.348 773H978.392L971.461 755.006H946.618L940.093 773H931.745ZM948.888 748.603H969.03L962.829 732.148C960.938 727.15 959.533 723.043 958.614 719.828C957.858 723.638 956.791 727.42 955.413 731.176L948.888 748.603ZM1012.11 773V713.587H1032.58C1037.2 713.587 1040.72 713.871 1043.15 714.438C1046.56 715.222 1049.46 716.64 1051.87 718.693C1055 721.341 1057.34 724.732 1058.88 728.866C1060.45 732.972 1061.23 737.674 1061.23 742.969C1061.23 747.481 1060.7 751.48 1059.65 754.965C1058.6 758.451 1057.24 761.342 1055.6 763.638C1053.95 765.908 1052.14 767.704 1050.17 769.028C1048.22 770.325 1045.86 771.311 1043.07 771.987C1040.32 772.662 1037.14 773 1033.55 773H1012.11ZM1019.97 765.989H1032.66C1036.58 765.989 1039.64 765.624 1041.86 764.895C1044.1 764.165 1045.88 763.138 1047.21 761.814C1049.07 759.95 1050.52 757.451 1051.54 754.317C1052.6 751.156 1053.12 747.333 1053.12 742.848C1053.12 736.633 1052.1 731.865 1050.04 728.542C1048.02 725.191 1045.55 722.949 1042.63 721.814C1040.52 721.003 1037.13 720.598 1032.46 720.598H1019.97V765.989ZM1072.25 773V713.587H1115.21V720.598H1080.12V738.795H1112.98V745.766H1080.12V765.989H1116.59V773H1072.25ZM1164.13 773V720.598H1144.55V713.587H1191.65V720.598H1171.99V773H1164.13ZM1195.82 744.063C1195.82 734.202 1198.47 726.488 1203.76 720.922C1209.06 715.33 1215.9 712.533 1224.27 712.533C1229.76 712.533 1234.7 713.844 1239.1 716.464C1243.51 719.085 1246.86 722.746 1249.15 727.447C1251.48 732.121 1252.64 737.431 1252.64 743.375C1252.64 749.4 1251.42 754.79 1248.99 759.545C1246.56 764.3 1243.12 767.907 1238.66 770.366C1234.2 772.797 1229.39 774.013 1224.23 774.013C1218.64 774.013 1213.64 772.662 1209.24 769.96C1204.83 767.259 1201.49 763.571 1199.23 758.896C1196.96 754.222 1195.82 749.278 1195.82 744.063ZM1203.93 744.185C1203.93 751.345 1205.84 756.992 1209.68 761.125C1213.54 765.232 1218.38 767.286 1224.19 767.286C1230.11 767.286 1234.97 765.205 1238.78 761.044C1242.62 756.884 1244.53 750.98 1244.53 743.334C1244.53 738.498 1243.71 734.283 1242.06 730.689C1240.44 727.069 1238.05 724.273 1234.89 722.3C1231.76 720.301 1228.23 719.301 1224.31 719.301C1218.75 719.301 1213.95 721.22 1209.92 725.056C1205.93 728.866 1203.93 735.242 1203.93 744.185ZM1262.93 773V713.587H1289.28C1294.57 713.587 1298.6 714.127 1301.35 715.208C1304.11 716.262 1306.31 718.139 1307.96 720.841C1309.61 723.543 1310.43 726.529 1310.43 729.798C1310.43 734.013 1309.07 737.566 1306.34 740.457C1303.61 743.347 1299.4 745.185 1293.69 745.968C1295.77 746.968 1297.36 747.954 1298.44 748.927C1300.73 751.034 1302.91 753.668 1304.96 756.83L1315.3 773H1305.41L1297.54 760.639C1295.25 757.073 1293.36 754.344 1291.87 752.453C1290.38 750.561 1289.05 749.237 1287.86 748.481C1286.7 747.724 1285.51 747.198 1284.29 746.9C1283.4 746.711 1281.94 746.617 1279.92 746.617H1270.8V773H1262.93ZM1270.8 739.808H1287.7C1291.29 739.808 1294.1 739.443 1296.13 738.714C1298.15 737.957 1299.69 736.769 1300.75 735.147C1301.8 733.499 1302.33 731.716 1302.33 729.798C1302.33 726.988 1301.3 724.678 1299.25 722.868C1297.22 721.057 1294.01 720.152 1289.6 720.152H1270.8V739.808ZM1322.71 773V713.587H1330.78L1361.98 760.234V713.587H1369.52V773H1361.46L1330.25 726.312V773H1322.71ZM1384.11 773V713.587H1391.97V773H1384.11ZM1405.55 773V713.587H1413.41V765.989H1442.67V773H1405.55ZM1451.75 773V713.587H1459.61V765.989H1488.87V773H1451.75ZM1495.89 744.063C1495.89 734.202 1498.53 726.488 1503.83 720.922C1509.12 715.33 1515.96 712.533 1524.34 712.533C1529.82 712.533 1534.76 713.844 1539.17 716.464C1543.57 719.085 1546.92 722.746 1549.22 727.447C1551.54 732.121 1552.7 737.431 1552.7 743.375C1552.7 749.4 1551.49 754.79 1549.06 759.545C1546.63 764.3 1543.18 767.907 1538.72 770.366C1534.26 772.797 1529.46 774.013 1524.29 774.013C1518.7 774.013 1513.7 772.662 1509.3 769.96C1504.9 767.259 1501.56 763.571 1499.29 758.896C1497.02 754.222 1495.89 749.278 1495.89 744.063ZM1503.99 744.185C1503.99 751.345 1505.91 756.992 1509.75 761.125C1513.61 765.232 1518.45 767.286 1524.25 767.286C1530.17 767.286 1535.03 765.205 1538.84 761.044C1542.68 756.884 1544.6 750.98 1544.6 743.334C1544.6 738.498 1543.78 734.283 1542.13 730.689C1540.51 727.069 1538.11 724.273 1534.95 722.3C1531.82 720.301 1528.29 719.301 1524.38 719.301C1518.81 719.301 1514.01 721.22 1509.99 725.056C1505.99 728.866 1503.99 735.242 1503.99 744.185ZM1560.2 753.912L1567.62 753.263C1567.97 756.235 1568.78 758.68 1570.05 760.599C1571.35 762.49 1573.35 764.03 1576.05 765.219C1578.75 766.381 1581.79 766.961 1585.17 766.961C1588.17 766.961 1590.81 766.516 1593.11 765.624C1595.41 764.732 1597.11 763.517 1598.22 761.977C1599.35 760.41 1599.92 758.707 1599.92 756.87C1599.92 755.006 1599.38 753.385 1598.3 752.007C1597.22 750.602 1595.43 749.427 1592.95 748.481C1591.35 747.86 1587.83 746.9 1582.37 745.604C1576.91 744.28 1573.09 743.037 1570.9 741.875C1568.06 740.389 1565.94 738.552 1564.54 736.363C1563.16 734.148 1562.47 731.676 1562.47 728.947C1562.47 725.948 1563.32 723.151 1565.02 720.558C1566.73 717.937 1569.21 715.951 1572.48 714.6C1575.75 713.249 1579.39 712.574 1583.38 712.574C1587.79 712.574 1591.66 713.29 1595.02 714.722C1598.39 716.127 1600.99 718.207 1602.8 720.963C1604.61 723.719 1605.58 726.839 1605.71 730.325L1598.18 730.892C1597.77 727.137 1596.39 724.3 1594.04 722.381C1591.72 720.463 1588.27 719.504 1583.71 719.504C1578.95 719.504 1575.48 720.382 1573.29 722.138C1571.13 723.867 1570.05 725.961 1570.05 728.42C1570.05 730.554 1570.82 732.311 1572.36 733.688C1573.87 735.066 1577.82 736.485 1584.19 737.944C1590.6 739.376 1594.99 740.632 1597.37 741.713C1600.82 743.307 1603.38 745.333 1605.03 747.792C1606.67 750.224 1607.5 753.034 1607.5 756.222C1607.5 759.383 1606.59 762.368 1604.78 765.178C1602.97 767.961 1600.36 770.136 1596.96 771.703C1593.58 773.243 1589.77 774.013 1585.53 774.013C1580.16 774.013 1575.64 773.23 1572 771.663C1568.38 770.096 1565.52 767.745 1563.44 764.611C1561.39 761.45 1560.31 757.883 1560.2 753.912ZM1619.21 773V764.692H1627.52V773C1627.52 776.053 1626.98 778.512 1625.9 780.376C1624.82 782.267 1623.1 783.726 1620.75 784.753L1618.72 781.632C1620.26 780.957 1621.4 779.957 1622.13 778.633C1622.86 777.336 1623.26 775.459 1623.34 773H1619.21ZM1661.76 753.912L1669.18 753.263C1669.53 756.235 1670.34 758.68 1671.61 760.599C1672.91 762.49 1674.91 764.03 1677.61 765.219C1680.31 766.381 1683.35 766.961 1686.73 766.961C1689.73 766.961 1692.38 766.516 1694.67 765.624C1696.97 764.732 1698.67 763.517 1699.78 761.977C1700.91 760.41 1701.48 758.707 1701.48 756.87C1701.48 755.006 1700.94 753.385 1699.86 752.007C1698.78 750.602 1697 749.427 1694.51 748.481C1692.92 747.86 1689.39 746.9 1683.93 745.604C1678.47 744.28 1674.65 743.037 1672.46 741.875C1669.63 740.389 1667.51 738.552 1666.1 736.363C1664.72 734.148 1664.03 731.676 1664.03 728.947C1664.03 725.948 1664.88 723.151 1666.59 720.558C1668.29 717.937 1670.77 715.951 1674.04 714.6C1677.31 713.249 1680.95 712.574 1684.95 712.574C1689.35 712.574 1693.23 713.29 1696.58 714.722C1699.95 716.127 1702.55 718.207 1704.36 720.963C1706.17 723.719 1707.14 726.839 1707.28 730.325L1699.74 730.892C1699.33 727.137 1697.95 724.3 1695.6 722.381C1693.28 720.463 1689.84 719.504 1685.27 719.504C1680.51 719.504 1677.04 720.382 1674.85 722.138C1672.69 723.867 1671.61 725.961 1671.61 728.42C1671.61 730.554 1672.38 732.311 1673.92 733.688C1675.43 735.066 1679.38 736.485 1685.76 737.944C1692.16 739.376 1696.55 740.632 1698.93 741.713C1702.39 743.307 1704.94 745.333 1706.59 747.792C1708.24 750.224 1709.06 753.034 1709.06 756.222C1709.06 759.383 1708.15 762.368 1706.34 765.178C1704.53 767.961 1701.93 770.136 1698.52 771.703C1695.14 773.243 1691.34 774.013 1687.09 774.013C1681.72 774.013 1677.2 773.23 1673.56 771.663C1669.94 770.096 1667.09 767.745 1665.01 764.611C1662.95 761.45 1661.87 757.883 1661.76 753.912ZM1720.93 773V764.692H1729.24V773H1720.93ZM1736.37 773L1759.19 713.587H1767.66L1791.98 773H1783.02L1776.09 755.006H1751.25L1744.72 773H1736.37ZM1753.52 748.603H1773.66L1767.46 732.148C1765.57 727.15 1764.16 723.043 1763.24 719.828C1762.49 723.638 1761.42 727.42 1760.04 731.176L1753.52 748.603ZM1799.39 773V764.692H1807.7V773H1799.39ZM1844.46 773V713.587H1864.93C1869.55 713.587 1873.07 713.871 1875.5 714.438C1878.91 715.222 1881.81 716.64 1884.22 718.693C1887.35 721.341 1889.69 724.732 1891.23 728.866C1892.8 732.972 1893.58 737.674 1893.58 742.969C1893.58 747.481 1893.05 751.48 1892 754.965C1890.95 758.451 1889.59 761.342 1887.95 763.638C1886.3 765.908 1884.49 767.704 1882.52 769.028C1880.57 770.325 1878.21 771.311 1875.42 771.987C1872.67 772.662 1869.49 773 1865.9 773H1844.46ZM1852.32 765.989H1865.01C1868.93 765.989 1871.99 765.624 1874.21 764.895C1876.45 764.165 1878.23 763.138 1879.56 761.814C1881.42 759.95 1882.87 757.451 1883.89 754.317C1884.95 751.156 1885.47 747.333 1885.47 742.848C1885.47 736.633 1884.45 731.865 1882.39 728.542C1880.37 725.191 1877.9 722.949 1874.98 721.814C1872.87 721.003 1869.48 720.598 1864.81 720.598H1852.32V765.989ZM1904.6 773V713.587H1947.56V720.598H1912.47V738.795H1945.33V745.766H1912.47V765.989H1948.94V773H1904.6ZM2025.29 752.169L2033.16 754.155C2031.51 760.612 2028.54 765.543 2024.24 768.947C2019.97 772.325 2014.74 774.013 2008.56 774.013C2002.15 774.013 1996.94 772.716 1992.91 770.123C1988.91 767.502 1985.86 763.719 1983.75 758.775C1981.67 753.831 1980.63 748.521 1980.63 742.848C1980.63 736.66 1981.81 731.27 1984.16 726.677C1986.54 722.057 1989.9 718.558 1994.25 716.181C1998.63 713.776 2003.44 712.574 2008.68 712.574C2014.62 712.574 2019.62 714.087 2023.67 717.113C2027.73 720.139 2030.55 724.394 2032.14 729.879L2024.4 731.703C2023.02 727.38 2021.03 724.232 2018.4 722.26C2015.78 720.287 2012.49 719.301 2008.52 719.301C2003.95 719.301 2000.13 720.396 1997.05 722.584C1993.99 724.772 1991.85 727.717 1990.6 731.419C1989.36 735.093 1988.74 738.889 1988.74 742.807C1988.74 747.86 1989.47 752.277 1990.93 756.06C1992.41 759.815 1994.71 762.625 1997.82 764.489C2000.92 766.354 2004.29 767.286 2007.91 767.286C2012.31 767.286 2016.04 766.016 2019.09 763.476C2022.15 760.936 2024.21 757.167 2025.29 752.169ZM2044.02 773V764.692H2052.33V773H2044.02ZM2082.96 773L2059.94 713.587H2068.46L2083.9 756.749C2085.14 760.207 2086.18 763.449 2087.02 766.475C2087.94 763.233 2089 759.991 2090.22 756.749L2106.27 713.587H2114.29L2091.03 773H2082.96ZM2114.86 773V764.692H2123.17V773H2114.86Z" fill="black"/>
</svg>
