<svg width="360" height="482" viewBox="0 0 360 482" fill="none" xmlns="http://www.w3.org/2000/svg">
<path d="M75.2841 335.453C109.76 335.453 137.707 330.132 137.707 323.568C137.707 317.004 109.76 311.683 75.2841 311.683C40.8087 311.683 12.8608 317.004 12.8608 323.568C12.8608 330.132 40.8087 335.453 75.2841 335.453Z" fill="white" stroke="#6562CF" stroke-width="5" stroke-miterlimit="10"/>
<path d="M71.5914 335.457V418.972C71.5897 423.532 70.3116 428.002 67.9018 431.874C65.492 435.746 62.0465 438.866 57.9554 440.881L35.7472 451.831C33.4684 452.955 31.5496 454.694 30.208 456.852C28.8663 459.009 28.1552 461.5 28.1553 464.041" stroke="#6562CF" stroke-width="5" stroke-miterlimit="10"/>
<path d="M28.3578 479.475C32.62 479.475 36.0751 476.02 36.0751 471.758C36.0751 467.496 32.62 464.041 28.3578 464.041C24.0957 464.041 20.6406 467.496 20.6406 471.758C20.6406 476.02 24.0957 479.475 28.3578 479.475Z" stroke="#FFB000" stroke-width="5" stroke-miterlimit="10"/>
<path d="M57.5722 479.475C61.8343 479.475 65.2894 476.02 65.2894 471.758C65.2894 467.496 61.8343 464.041 57.5722 464.041C53.3101 464.041 49.855 467.496 49.855 471.758C49.855 476.02 53.3101 479.475 57.5722 479.475Z" stroke="#FFB000" stroke-width="5" stroke-miterlimit="10"/>
<path d="M71.5913 409.165V435.331C71.5912 439.518 70.0392 443.555 67.2351 446.664L61.9318 452.56C59.1262 455.668 57.5727 459.706 57.572 463.893" stroke="#6562CF" stroke-width="5" stroke-miterlimit="10"/>
<path d="M79.4707 335.457V418.972C79.472 423.533 80.7498 428.002 83.1597 431.874C85.5696 435.746 89.0152 438.866 93.1067 440.881L115.311 451.831C117.591 452.954 119.511 454.693 120.853 456.851C122.195 459.009 122.907 461.499 122.907 464.041" stroke="#6562CF" stroke-width="5" stroke-miterlimit="10"/>
<path d="M122.708 479.475C126.97 479.475 130.425 476.02 130.425 471.758C130.425 467.496 126.97 464.041 122.708 464.041C118.446 464.041 114.99 467.496 114.99 471.758C114.99 476.02 118.446 479.475 122.708 479.475Z" stroke="#FFB000" stroke-width="5" stroke-miterlimit="10"/>
<path d="M93.4899 479.475C97.752 479.475 101.207 476.02 101.207 471.758C101.207 467.496 97.752 464.041 93.4899 464.041C89.2278 464.041 85.7727 467.496 85.7727 471.758C85.7727 476.02 89.2278 479.475 93.4899 479.475Z" stroke="#FFB000" stroke-width="5" stroke-miterlimit="10"/>
<path d="M79.4707 409.165V435.331C79.4708 439.518 81.0228 443.555 83.8268 446.664L89.1338 452.56C91.9385 455.669 93.4906 459.707 93.49 463.893" stroke="#6562CF" stroke-width="5" stroke-miterlimit="10"/>
<path d="M132.695 426.512C132.695 426.512 133.13 441.04 124.374 447.125C116.118 452.859 115.812 457.473 115.812 457.473C115.812 457.473 129.57 470.833 132.957 472.215C136.344 473.597 148.679 477.853 155.069 477.853C155.069 477.853 159.392 474.702 149.493 466.06C136.064 454.307 151.303 433.194 151.303 433.194C151.303 433.194 137.306 429.003 132.695 426.512Z" fill="#FFC0B7"/>
<path d="M108.073 254.832C108.073 254.832 177.959 263.072 205.843 292.15C220.909 307.864 161.618 402.59 158.836 434.406C158.836 434.406 137.324 431.576 123.382 420.818C123.382 420.818 125.962 332.763 157.656 316.444C157.656 316.444 97.3375 321.235 71.525 308.078C45.7124 294.921 71.525 258.956 71.525 258.956C71.525 258.956 93.9764 263.334 108.073 254.832Z" fill="#3C4564"/>
<path d="M126.585 443.808C126.585 443.808 114.987 448.374 114.707 456.736C114.707 456.736 126.813 469.137 132.957 472.215C142.587 477.061 155.806 478.59 155.806 478.59C155.806 478.59 160.597 472.694 153.068 466.978C145.539 461.262 144.087 451.131 144.087 451.131C144.087 451.131 143.258 458.302 136.558 459.607C130.558 460.786 128.619 457.764 128.619 457.764C128.619 457.764 130.425 444.825 126.585 443.808Z" fill="#5654B7"/>
<path d="M30.1639 260.179C30.1639 260.179 17.4787 296.082 22.056 306.106C30.5766 324.828 98.2995 330.408 148.495 321.242C148.495 321.242 130.963 382.977 151.679 433.57C151.679 433.57 165.624 435.976 185.142 433.201C185.142 433.201 184.744 372.248 193.508 307.315C195.251 294.265 120.172 263.629 87.118 260.168C54.0637 256.707 30.1639 260.179 30.1639 260.179Z" fill="#3F4D79"/>
<path d="M156.647 434.181C156.647 434.181 160.432 448.304 160.432 452.509C160.432 461.074 153.857 471.43 155.051 478.602H214.589C214.589 478.602 210.984 469.812 196.482 466.628C180.149 463.042 177.152 452.557 177.561 434.196C177.561 434.181 166.8 435.007 156.647 434.181Z" fill="#FFCFC9"/>
<path d="M159.4 459.272C159.4 459.272 152.464 469.038 155.051 478.602H215.517C215.517 478.602 215.381 470.051 206.952 469.02C198.524 467.988 184.84 461.055 184.84 461.055C184.84 461.055 185.853 471.216 170.316 472.41C170.316 472.425 170.917 459.659 159.4 459.272Z" fill="#6562CF"/>
<path d="M116.94 111.772C108.427 115.995 103.275 117.366 105.969 144.31C108.663 171.254 128.251 202.735 128.251 202.735L153.724 177.623C153.724 177.623 136.558 127.685 132.961 122.157C125.955 111.429 120.253 110.128 116.94 111.772Z" fill="#254F81"/>
<path d="M160.682 185.723C160.682 185.723 155.464 173.93 152.891 173.808C150.319 173.687 132.106 187.216 129.548 199.186C128.726 203.048 124.904 209.505 146.91 212.317C153.732 213.187 160.682 185.723 160.682 185.723Z" fill="#112E51"/>
<path d="M242.129 206.483C242.129 206.483 240.5 207.544 235.691 206.402C234.143 206.033 231.958 203.313 229.654 201.836C227.79 200.638 224.126 200.844 220.187 201.312C217.953 201.57 215.845 198.618 214.434 196.96C200.429 201.014 161.412 212.365 145.907 211.079C141.971 210.754 153.238 185.955 160.059 184.337C165.219 183.117 195.583 184.205 214.832 186.663C221.683 187.651 228.446 189.179 235.057 191.233C237.585 192.825 242.129 206.483 242.129 206.483Z" fill="#FFC0B7"/>
<path d="M108.073 254.832C108.073 254.832 101.318 260.43 87.1215 260.157V260.135C85.522 233.032 82.1904 182.119 78.7151 163.209C71.7534 125.364 52.7736 92.7294 52.4788 92.2245L88.861 94.1483C88.861 94.1483 107.716 107.478 111.832 163.242C115.949 219.006 108.073 254.832 108.073 254.832Z" fill="white"/>
<path d="M88.8574 94.1483C92.307 95.5119 114.851 106.929 122.026 111.178C129.201 115.428 133.539 148.674 129.765 175.452C123.393 220.598 123.924 238.255 130.237 258.701C130.237 258.701 115.846 255.69 108.08 255.067C108.08 255.067 104.126 224.11 109.555 192.714C120.552 129.031 88.8574 94.1483 88.8574 94.1483Z" fill="#254F81"/>
<path d="M52.4715 92.2328C52.4715 92.2328 16.502 104.129 4.66449 117.293C-0.126529 122.604 27.2412 188.204 24.8494 207.324C22.4576 226.444 11.3056 268.66 11.3056 268.66C11.3056 268.66 28.3763 290.968 88.1019 277.682C88.1019 277.682 83.5431 189.509 78.7078 163.217C71.6945 125.081 52.4715 92.2328 52.4715 92.2328Z" fill="#254F81"/>
<path d="M128.531 153.14C126.883 164.797 125.321 192.206 126.268 201.154" stroke="#112E51" stroke-width="6" stroke-miterlimit="10" stroke-linecap="round"/>
<path d="M12.5771 110.681C4.66457 117.278 -2.23818 116.747 0.684339 145.961C3.60686 175.175 24.8495 209.31 24.8495 209.31L52.4715 182.078C52.4715 182.078 38.2201 129.16 35.4745 122.588C31.4353 112.9 20.4897 104.099 12.5771 110.681Z" fill="#254F81"/>
<path d="M52.8549 182.078C52.8549 182.078 44.0726 139.578 38.1501 130.634" stroke="#112E51" stroke-width="6" stroke-miterlimit="10" stroke-linecap="round"/>
<path d="M63.1851 187.669C63.1851 187.669 54.3402 178.057 51.543 177.943C48.7458 177.829 29.7991 191.399 25.7452 205.289C24.5474 209.402 17.9321 216.371 44.0874 223.082C58.6337 226.823 63.1851 187.669 63.1851 187.669Z" fill="#112E51"/>
<path d="M175.822 205.447C175.822 205.447 174.466 207.342 172.487 206.041C171.252 205.23 169.015 203.092 167.327 202.035C168.838 204.42 170.226 206.88 171.488 209.405C169.304 210.372 166.954 210.91 164.567 210.99C162.591 211.075 159.558 207.673 156.518 206.14C154.06 204.906 149.571 205.639 144.758 206.73C139.945 207.821 134.759 200.697 134.759 200.697V200.656C125.627 203.734 66.97 220.189 45.1377 219.039C40.2398 218.781 53.2935 189.637 61.6999 187.374C68.798 185.461 115.263 185.952 137.7 189.136C146.357 190.112 159.532 193.654 162.002 194.214C164.253 194.52 169.439 198.213 170.88 199.407C172.383 200.656 175.822 205.447 175.822 205.447Z" fill="#FFCFC9"/>
<path d="M168.985 209.475C168.985 209.475 162.882 200.715 161.202 200.114C158.253 199.053 154.387 197.649 154.387 197.649" stroke="#F7B3AF" stroke-width="4" stroke-miterlimit="10" stroke-linecap="round"/>
<path d="M166.063 210.301C166.063 210.301 160.535 202.996 158.876 202.396C155.928 201.334 152.058 199.93 152.058 199.93" stroke="#F7B3AF" stroke-width="4" stroke-miterlimit="10" stroke-linecap="round"/>
<path d="M89.4767 89.3904L81.144 112.822C81.144 112.822 58.4862 115.317 52.5637 92.1471L60.5463 69.2976L89.4767 89.3904Z" fill="#FFCFC9"/>
<path d="M89.4804 89.3904L85.7139 99.9749C80.7018 102.256 74.2892 102.186 68.024 93.8608C62.3448 86.2983 61.1213 75.2016 60.0488 71.085L60.5316 69.3123L89.4804 89.3904Z" fill="#FFC0B7"/>
<path d="M60.5464 69.3124C60.5464 69.3124 67.497 85.2738 75.9919 87.8499C84.0997 90.3044 94.0171 89.6521 95.0454 87.8499C96.0736 86.0478 104.487 64.772 102.254 50.7159C100.71 40.9901 96.5895 39.6597 88.865 40.4152C81.1404 41.1707 78.4242 42.022 68.9822 39.129C66.3324 38.3182 70.8839 53.1851 62.905 58.8495C62.905 58.8495 56.9199 56.8373 55.63 58.8974C54.3401 60.9576 60.5464 69.3124 60.5464 69.3124Z" fill="#FFCFC9"/>
<path d="M59.4628 72.257C59.4628 72.257 39.0641 59.793 40.0518 42.9212C40.483 35.6979 55.7811 16.2758 65.1531 15.4724C74.525 14.669 88.9865 19.4895 93.5306 23.5066C98.0747 27.5236 104.296 31.8429 102.674 47.2258C102.582 48.0664 102.382 48.8915 102.077 49.6803C100.404 40.8943 96.3094 39.6707 88.8686 40.4152C81.1293 41.1891 78.4242 42.0183 68.9675 39.129C66.3177 38.3145 70.8728 53.1851 62.8902 58.8495C62.8902 58.8495 56.9052 56.8373 55.6189 58.8937C54.3327 60.9502 60.5316 69.3087 60.5316 69.3087L59.4628 72.257Z" fill="#3F4D79"/>
<path d="M57.8928 18.6492C57.8928 18.6492 59.7982 3.69757 49.8881 4.22458C39.9781 4.75159 33.9525 14.1346 33.0201 20.2634C31.826 28.1391 46.1217 30.4609 46.1217 30.4609L57.8928 18.6492Z" fill="#3F4D79"/>
<path d="M36.4033 30.3393C39.7607 34.3048 46.1217 30.4609 46.1217 30.4609" stroke="#3F4D79" stroke-width="4" stroke-miterlimit="10"/>
<path d="M60.6274 18.0706C60.6274 18.0706 62.8129 1.4642 51.4434 2.01332C40.074 2.56245 32.6737 16.1616 34.2105 20.374C35.7473 24.5864 47.1094 30.4609 47.1094 30.4609L60.6274 18.0706Z" stroke="#3F4D79" stroke-width="4" stroke-miterlimit="10"/>
<path d="M96.5564 40.3415C94.5405 39.538 91.9275 41.4471 88.865 42.1841C78.9144 44.5797 72.0817 43.2898 68.3926 38.5393" stroke="#3F4D79" stroke-width="4" stroke-miterlimit="10"/>
<path d="M79.9904 68.9107C84.2749 68.9107 87.7482 65.4374 87.7482 61.1529C87.7482 56.8684 84.2749 53.3951 79.9904 53.3951C75.7059 53.3951 72.2327 56.8684 72.2327 61.1529C72.2327 65.4374 75.7059 68.9107 79.9904 68.9107Z" stroke="#FFB000" stroke-width="5" stroke-miterlimit="10"/>
<path d="M100.006 68.9107C104.018 68.9107 107.27 65.4374 107.27 61.1529C107.27 56.8684 104.018 53.3951 100.006 53.3951C95.9941 53.3951 92.7419 56.8684 92.7419 61.1529C92.7419 65.4374 95.9941 68.9107 100.006 68.9107Z" stroke="#FFB000" stroke-width="5" stroke-miterlimit="10"/>
<path d="M87.6929 60.6185H92.436" stroke="#FFB000" stroke-width="5" stroke-miterlimit="10"/>
<path d="M254.516 479.479L287.685 226.513H293.662L326.831 479.479" stroke="#FFB000" stroke-width="5" stroke-miterlimit="10" stroke-linecap="round"/>
<path d="M313.062 215.151H296.478L293.898 211.51C291.374 207.931 286.701 205.727 281.641 205.727H257.291C252.231 205.727 247.558 207.939 245.034 211.51L242.454 215.151H226.514L232.886 207.139C235.735 203.557 240.994 201.353 246.699 201.353H292.874C298.575 201.353 303.845 203.564 306.69 207.139L313.062 215.151Z" fill="#D1D0FF" stroke="#6562CF" stroke-width="6" stroke-linejoin="round"/>
<path d="M313.368 215.151H306.642L304.063 211.51C301.534 207.931 296.861 205.727 291.805 205.727H257.608C252.552 205.727 247.879 207.939 245.35 211.51L242.771 215.151H226.82L233.192 207.139C236.041 203.557 241.3 201.353 247.009 201.353H293.183C298.885 201.353 304.151 203.564 306.996 207.139L313.368 215.151Z" fill="white" stroke="#6562CF" stroke-width="6" stroke-miterlimit="10"/>
<path d="M322.677 178.783H166.549C162.403 178.783 159.414 174.663 160.564 170.532L183.852 87.0059C184.427 84.8186 185.705 82.8807 187.489 81.4904C189.273 80.1 191.464 79.3343 193.725 79.3108H349.854C354 79.3108 356.992 83.4311 355.839 87.5588L332.551 171.088C331.973 173.274 330.694 175.21 328.911 176.6C327.128 177.99 324.938 178.757 322.677 178.783Z" fill="white" stroke="#6562CF" stroke-width="6" stroke-miterlimit="10"/>
<path d="M231.784 153.365L227.845 177.527H241.481L235.448 153.325C235.315 152.783 231.873 152.816 231.784 153.365Z" fill="#E2E2FF"/>
<path d="M287.213 201.098H248.516L238.96 162.697C237.906 158.477 236.542 156.833 233.277 155.904V153.693H266.121C268.771 153.693 271.345 154.58 273.433 156.211C275.522 157.843 277.004 160.125 277.646 162.697L287.213 201.098Z" fill="#D1D0FF" stroke="#6562CF" stroke-width="6" stroke-linejoin="round"/>
<path d="M291.053 201.098H252.356L242.8 162.697C241.481 157.408 239.682 153.693 234.228 153.693H269.976C272.623 153.698 275.193 154.586 277.278 156.217C279.363 157.848 280.844 160.129 281.486 162.697L291.053 201.098Z" fill="white" stroke="#6562CF" stroke-width="6" stroke-miterlimit="10"/>
<path d="M190.961 208.554L139.524 211.506V215.151H190.961V208.554Z" fill="white" stroke="#6562CF" stroke-width="6" stroke-linejoin="round"/>
<path d="M223.128 208.554H190.961V215.011H223.128V208.554Z" fill="#D1D0FF" stroke="#6562CF" stroke-width="6" stroke-linejoin="round"/>
<path d="M84.0959 225.968H320.245V215.151H83.5615L84.0959 225.968Z" fill="white" stroke="#6562CF" stroke-width="6" stroke-linejoin="round"/>
</svg>
